<?xml version="1.0" standalone="no"?>
<!DOCTYPE svg PUBLIC "-//W3C//DTD SVG 20010904//EN"
 "http://www.w3.org/TR/2001/REC-SVG-20010904/DTD/svg10.dtd">
<svg version="1.0" xmlns="http://www.w3.org/2000/svg"
 width="500.000000pt" height="500.000000pt" viewBox="0 0 500.000000 500.000000"
 preserveAspectRatio="xMidYMid meet">
<metadata>
Created by potrace 1.11, written by Peter Selinger 2001-2013
</metadata>
<g transform="translate(0.000000,500.000000) scale(0.100000,-0.100000)"
fill="#000000" stroke="none">
<path d="M1753 4988 c-30 -10 -38 -21 -57 -80 -4 -12 -16 -18 -36 -18 -17 0
-29 -4 -25 -9 6 -11 -29 -34 -37 -25 -3 2 -8 -13 -12 -35 -6 -42 -10 -45 -86
-57 -24 -3 -55 -13 -67 -21 -13 -9 -23 -12 -23 -8 0 4 -6 3 -12 -2 -7 -6 -25
-13 -39 -16 -56 -14 -309 -245 -368 -336 -78 -121 -130 -240 -141 -321 -24
-187 3 -366 65 -434 18 -20 41 -36 51 -36 42 0 82 -37 98 -91 9 -29 16 -62 16
-73 0 -18 1 -18 13 -4 6 9 23 18 37 21 14 4 40 20 58 36 27 26 36 29 58 21 17
-7 23 -7 19 0 -8 13 11 12 65 -4 25 -7 46 -20 48 -29 2 -9 9 -14 18 -10 8 3
14 0 14 -6 0 -6 -7 -11 -15 -11 -13 0 -14 -3 -3 -22 7 -13 13 -29 13 -36 0 -7
27 -37 60 -67 32 -30 57 -56 54 -59 -3 -3 -28 6 -56 19 -83 38 -225 68 -293
62 -32 -3 -66 -10 -77 -16 -14 -8 4 -11 77 -11 52 -1 113 -7 135 -15 l40 -13
-35 1 c-76 0 -133 -51 -134 -120 -1 -52 14 -65 40 -34 10 11 21 18 26 15 4 -3
8 2 8 11 0 30 50 65 91 65 43 0 52 -17 19 -38 -25 -15 -26 -53 -2 -81 14 -18
31 -23 95 -28 76 -5 77 -5 77 18 1 36 18 3 26 -49 6 -37 4 -42 -13 -42 -16 0
-20 -6 -18 -37 1 -21 -3 -54 -8 -73 -8 -30 -6 -37 13 -52 22 -18 22 -19 6 -63
-37 -95 -140 -165 -244 -165 -88 0 -119 14 -251 107 -27 19 -24 13 15 -24 56
-54 145 -102 237 -128 31 -9 57 -21 57 -26 0 -6 -4 -7 -10 -4 -6 4 -7 -1 -3
-10 3 -10 0 -21 -8 -26 -10 -6 -10 -9 -2 -9 7 0 10 -7 7 -17 -3 -10 1 -7 9 6
10 16 16 20 19 11 2 -8 9 -10 17 -6 11 7 11 10 0 17 -10 6 -11 9 -1 9 6 0 12
12 12 26 0 19 19 45 68 95 53 52 80 92 121 172 42 83 51 108 43 123 -11 21
-12 25 -12 55 0 11 -3 18 -7 16 -5 -3 -6 24 -5 59 l4 64 36 10 c53 14 68 13
160 -16 64 -21 82 -30 77 -42 -19 -49 -27 -167 -15 -219 6 -30 9 -57 6 -60 -3
-4 -6 -1 -6 6 0 7 -4 10 -9 7 -10 -6 22 -81 39 -91 5 -3 10 -14 10 -23 0 -16
29 -48 118 -130 96 -90 22 -163 -114 -113 -33 12 -79 32 -104 44 -54 26 -138
27 -205 1 -37 -14 -50 -15 -74 -4 -36 14 -83 6 -97 -18 -9 -15 -4 -24 32 -55
38 -34 51 -38 111 -43 85 -7 143 -32 143 -63 0 -18 18 -12 30 8 6 13 17 17 30
14 11 -3 33 0 48 6 20 8 36 9 55 2 14 -6 29 -7 31 -2 3 4 18 8 33 9 15 1 51 6
78 12 28 6 57 12 65 13 8 1 18 7 22 14 12 18 50 3 85 -34 17 -18 37 -33 44
-33 7 0 10 -3 6 -6 -8 -8 51 -64 68 -64 7 0 15 -6 18 -12 2 -7 8 -9 13 -5 5 4
2 12 -6 17 -22 14 -5 23 19 10 12 -6 21 -8 21 -6 0 8 -63 41 -72 38 -5 -1 -8
3 -8 9 0 5 -4 7 -10 4 -5 -3 -10 1 -10 10 0 8 -6 18 -14 21 -21 8 -96 112 -96
133 0 16 7 18 68 13 89 -6 164 11 204 45 93 81 118 108 147 163 18 33 38 88
45 123 l13 62 56 2 c37 1 62 7 73 17 8 9 29 16 45 16 17 0 65 12 107 26 42 14
102 28 134 31 51 5 59 3 82 -20 14 -14 31 -46 37 -72 l12 -47 23 29 c17 20 23
41 24 74 0 58 21 79 79 79 23 0 56 7 72 16 21 10 43 13 69 9 l39 -7 21 74 c12
40 25 89 30 108 23 92 40 171 40 187 0 10 12 45 26 78 35 85 74 237 81 321 6
76 -9 230 -33 323 -25 98 -95 263 -143 336 -60 92 -204 241 -246 255 -18 6
-41 20 -51 31 -18 20 -18 20 11 9 16 -6 35 -16 42 -22 8 -7 13 -7 13 0 0 5
-18 26 -40 46 -21 19 -51 53 -65 76 -16 25 -56 60 -108 95 l-82 55 -600 -1
c-368 -1 -612 -5 -632 -11z m1357 -118 c0 -5 -7 -7 -15 -4 -8 4 -15 8 -15 10
0 2 7 4 15 4 8 0 15 -4 15 -10z m-1350 -537 c8 -4 20 -7 25 -7 6 -1 9 -10 7
-20 -2 -10 1 -15 7 -12 5 4 12 2 16 -4 4 -6 10 -8 15 -5 5 3 11 1 15 -4 3 -6
12 -8 20 -4 10 3 15 -1 15 -13 0 -11 10 -30 21 -44 11 -14 18 -19 14 -12 -3 6
-3 12 2 12 12 -1 58 -80 94 -163 18 -39 59 -115 93 -167 34 -53 70 -112 80
-133 20 -39 30 -45 42 -25 4 7 3 8 -4 4 -7 -4 -12 0 -12 10 0 10 -6 25 -14 33
-8 9 -16 23 -18 31 -2 8 -8 19 -15 25 -6 5 -21 28 -33 50 l-21 40 36 -42 c21
-24 48 -44 65 -48 17 -4 28 -10 25 -15 -3 -5 -1 -11 5 -15 5 -3 10 -19 10 -35
0 -21 4 -28 14 -24 8 3 17 1 21 -5 3 -6 13 -11 21 -11 8 0 13 4 10 9 -3 5 3
11 14 14 11 3 23 1 26 -4 3 -5 10 -7 15 -3 6 3 18 -1 28 -10 11 -10 25 -14 37
-9 17 6 18 5 4 -12 -8 -10 -10 -16 -3 -12 6 4 15 3 18 -3 5 -8 11 -8 20 0 9 8
11 5 7 -15 -2 -14 -9 -22 -14 -19 -5 3 -18 -2 -28 -11 -18 -16 -53 -26 -95
-26 -10 0 -24 -4 -31 -9 -6 -6 -22 -9 -35 -8 -34 3 -115 -19 -182 -50 -44 -21
-59 -34 -66 -57 -8 -25 -9 -26 -10 -7 -1 12 -6 22 -12 22 -7 0 -9 -11 -5 -30
3 -19 2 -29 -4 -25 -11 7 -2 -23 13 -42 6 -9 6 -13 -1 -13 -7 0 -9 -8 -5 -17
6 -15 4 -16 -8 -6 -11 9 -14 7 -16 -15 0 -15 -6 -28 -12 -30 -6 -2 -9 -8 -5
-13 3 -5 -2 -9 -12 -9 -13 0 -14 -3 -5 -14 14 -17 -2 -32 -21 -20 -7 4 -8 3
-4 -4 4 -7 2 -12 -5 -12 -8 0 -9 -3 0 -13 6 -8 8 -16 5 -20 -3 -3 3 -11 14
-18 24 -15 17 -36 -25 -79 l-25 -25 -93 33 c-53 19 -102 31 -116 28 -61 -13
-100 -16 -94 -6 4 6 12 9 18 7 15 -5 32 13 41 41 4 12 12 22 17 22 6 0 1 13
-10 29 -12 16 -21 42 -22 58 0 15 -3 22 -6 15 -10 -25 -21 -1 -13 29 8 25 6
30 -5 25 -19 -7 -19 11 0 30 8 9 15 19 15 24 0 5 -25 34 -57 65 -77 77 -178
128 -258 129 -33 1 -63 4 -66 9 -3 4 -25 -15 -48 -43 -24 -28 -45 -49 -48 -46
-7 7 17 49 41 69 11 10 15 16 7 12 -19 -11 -6 45 25 103 13 25 24 53 24 63 0
10 4 20 9 24 5 3 12 19 16 35 4 17 11 28 16 24 5 -3 9 4 9 16 0 12 4 18 10 15
7 -4 7 3 0 20 -8 22 -7 25 7 23 17 -3 19 1 22 38 0 8 4 13 9 11 4 -3 8 11 10
31 1 20 6 38 10 42 4 3 23 25 42 50 19 25 38 47 42 48 5 2 8 10 8 18 0 8 5 14
10 14 6 0 24 14 42 30 17 17 34 30 37 30 3 0 18 11 33 25 17 15 45 28 70 31
24 4 44 7 46 9 4 3 54 -5 72 -12z m325 -293 c-3 -5 6 -20 20 -32 26 -22 65
-78 65 -92 0 -10 -51 31 -51 41 0 4 -12 23 -25 41 -22 27 -25 52 -8 52 3 0 2
-4 -1 -10z m679 -562 c-5 -8 -2 -9 10 -5 10 4 19 1 22 -7 3 -8 13 -12 23 -9
11 3 22 -5 30 -21 9 -15 20 -23 32 -21 10 2 21 0 24 -6 4 -5 19 -9 35 -9 37 0
100 -29 120 -55 43 -56 56 -92 59 -166 2 -69 0 -79 -22 -102 -43 -47 -299
-142 -402 -149 l-49 -3 -12 53 -12 52 32 0 c17 0 39 7 49 14 19 14 23 51 7 61
-5 3 -10 13 -10 22 0 16 -69 87 -77 80 -2 -2 -22 13 -44 34 -23 21 -58 43 -78
49 -20 6 -47 17 -60 23 -19 9 -25 9 -28 0 -2 -7 -10 -10 -17 -7 -7 3 -43 -6
-81 -21 -113 -42 -159 -24 -50 21 34 14 45 23 45 40 0 12 5 24 11 26 6 2 -2
10 -18 18 -15 8 -34 22 -40 30 -11 13 -14 13 -23 0 -8 -13 -10 -13 -10 2 0 19
33 41 45 30 5 -4 5 -2 1 5 -10 18 27 25 86 18 29 -4 56 -9 59 -10 3 -2 31 -7
63 -10 43 -5 56 -3 51 5 -7 12 -5 11 62 -24 17 -9 37 -16 45 -16 7 0 20 -9 28
-20 8 -12 28 -27 44 -35 35 -18 37 -18 34 -2 -2 7 5 11 17 9 16 -3 17 -1 8 9
-9 9 -9 18 -2 31 9 16 7 20 -9 25 -13 3 -18 12 -17 26 3 27 3 27 16 27 5 0 7
-5 3 -12z m-1384 -208 c12 -8 12 -10 -5 -11 -11 -1 -32 0 -46 1 -15 0 -44 -6
-64 -15 -21 -8 -40 -13 -42 -11 -9 9 43 30 87 37 25 3 47 7 50 8 3 0 12 -4 20
-9z m1043 -15 c20 -4 37 -11 37 -16 0 -5 6 -9 13 -9 8 0 22 -9 32 -20 24 -26
8 -26 -70 0 -33 11 -80 26 -105 32 l-45 12 40 6 c44 6 44 6 98 -5z m-249 -66
c-15 -16 -29 -29 -31 -29 -7 0 19 55 30 62 26 16 27 -6 1 -33z m-605 -36 c0
-25 -1 -25 -8 -8 -5 11 -7 23 -4 28 8 14 13 7 12 -20z m434 11 c-8 -21 16 -35
38 -23 24 12 37 11 19 -2 -12 -9 -10 -10 8 -6 48 11 56 -7 36 -75 -3 -11 5
-22 25 -34 16 -9 27 -23 25 -29 -5 -13 73 -54 116 -62 112 -19 230 -13 230 11
0 9 -24 15 -80 19 -50 4 -94 14 -120 27 -22 11 -45 18 -49 15 -5 -2 -28 2 -51
10 -23 8 -47 12 -52 9 -6 -4 -9 -1 -6 7 3 8 11 14 19 15 8 0 20 2 27 2 7 1 12
16 12 34 0 39 43 88 77 88 23 0 32 -15 13 -22 -5 -1 -14 -18 -20 -36 -8 -29
-6 -37 15 -58 15 -15 36 -24 54 -24 16 0 36 -3 45 -6 9 -3 26 5 41 20 29 29
43 33 50 14 4 -9 22 -12 55 -10 50 4 50 4 66 -34 12 -29 15 -61 12 -129 -3
-76 -9 -101 -37 -163 -100 -215 -335 -275 -537 -137 -59 41 -87 76 -114 145
-25 64 -25 70 3 70 26 0 67 26 67 42 0 7 -5 6 -14 -2 -18 -14 -58 -10 -63 7
-3 7 3 9 16 6 31 -8 48 36 30 79 -7 18 -12 41 -11 51 4 20 -27 24 -46 5 -9 -9
-12 -7 -12 11 0 49 26 106 63 143 42 40 60 48 50 22z m467 -64 c0 -11 -4 -20
-10 -20 -5 0 -10 9 -10 20 0 11 5 20 10 20 6 0 10 -9 10 -20z m-569 -163 c-8
-8 -11 -7 -11 4 0 20 13 34 18 19 3 -7 -1 -17 -7 -23z"/>
<path d="M2221 3783 c7 -12 15 -20 18 -17 3 2 -3 12 -13 22 -17 16 -18 16 -5
-5z"/>
<path d="M2335 3740 c-3 -5 -1 -10 4 -10 6 0 11 5 11 10 0 6 -2 10 -4 10 -3 0
-8 -4 -11 -10z"/>
<path d="M895 3178 c-16 -57 -28 -78 -46 -78 -26 0 -24 -15 5 -28 19 -8 25
-21 31 -61 4 -28 10 -53 14 -56 4 -2 4 17 0 43 -14 85 -12 102 14 102 37 0
177 34 177 43 0 5 -10 7 -22 4 -50 -13 -169 -30 -173 -25 -3 3 0 19 6 37 6 18
9 34 6 37 -3 3 -8 -5 -12 -18z"/>
<path d="M1463 3053 c3 -5 -25 -7 -62 -5 -73 4 -132 -7 -139 -26 -7 -21 107
-33 173 -18 11 2 23 5 27 5 4 1 14 8 22 17 18 17 13 34 -10 34 -8 0 -13 -3
-11 -7z"/>
<path d="M3400 2953 c-33 -13 -80 -56 -80 -74 0 -23 13 -24 30 -4 7 8 23 15
36 15 30 0 54 -44 61 -116 7 -65 21 -66 45 -3 28 73 24 115 -16 155 -34 34
-46 38 -76 27z"/>
<path d="M3230 2768 c-30 -50 -26 -76 21 -119 36 -33 41 -42 35 -69 -8 -43 19
-53 50 -17 48 56 43 150 -11 204 -42 42 -70 42 -95 1z"/>
<path d="M3167 2504 c-10 -10 -9 -44 2 -44 13 0 23 32 13 42 -5 5 -11 5 -15 2z"/>
<path d="M2415 2347 c-15 -19 -17 -39 -5 -35 7 2 10 7 8 10 -2 4 6 14 17 22
15 11 16 15 5 15 -8 0 -19 -5 -25 -12z"/>
<path d="M2458 2308 c-21 -6 -38 -15 -38 -20 0 -13 39 -48 53 -48 6 0 18 -6
26 -14 9 -7 27 -17 41 -20 18 -5 21 -4 11 2 -12 9 -12 13 2 27 9 9 21 13 27
10 17 -10 11 -55 -7 -62 -10 -4 -24 -12 -30 -19 -7 -7 -18 -14 -25 -16 -13 -5
-4 -38 11 -38 5 0 14 14 20 31 9 27 13 30 26 19 8 -7 15 -9 15 -4 0 5 4 2 10
-6 8 -12 10 -12 16 3 6 17 7 17 19 0 13 -17 14 -16 25 11 12 33 10 67 -5 78
-6 5 -5 8 3 8 7 0 4 8 -8 20 -11 11 -24 20 -29 20 -5 0 -14 7 -21 15 -14 17
-84 19 -142 3z"/>
<path d="M3265 2260 c-39 -25 -110 -36 -130 -20 -21 18 -40 -1 -53 -53 -19
-74 -41 -258 -47 -392 -6 -111 -10 -136 -30 -170 -29 -50 -116 -145 -132 -145
-7 0 -20 -9 -30 -20 -19 -19 -19 -19 -31 0 -7 11 -9 20 -4 20 4 0 16 26 27 58
10 31 29 71 41 87 12 17 37 62 56 100 65 132 75 205 20 137 -22 -26 -34 -32
-65 -32 -40 0 -97 24 -97 40 0 17 -18 11 -22 -7 -3 -15 -5 -15 -18 -2 -16 16
-75 25 -66 10 3 -5 -1 -15 -10 -22 -13 -10 -17 -10 -25 2 -8 12 -12 10 -28 -8
-18 -21 -35 -26 -78 -24 -26 1 -68 39 -68 61 0 21 -65 27 -80 7 -6 -8 -25 -18
-42 -21 -38 -9 -108 -75 -93 -90 6 -6 4 -16 -7 -28 -17 -19 -11 -23 29 -19 9
1 19 -3 23 -9 3 -6 11 -8 16 -5 5 4 9 2 9 -3 0 -6 18 -20 41 -31 32 -17 44
-19 55 -10 8 7 15 10 17 8 32 -55 32 -59 13 -59 -9 0 -16 -17 -20 -45 -6 -35
-11 -45 -26 -45 -10 0 -31 -5 -47 -12 -15 -6 -34 -10 -40 -9 -7 1 -13 -3 -13
-9 0 -7 -6 -10 -12 -7 -14 5 -104 -37 -125 -58 -7 -7 -27 -12 -45 -11 -20 2
-43 -5 -58 -16 -36 -26 -139 -15 -176 18 -14 13 -31 24 -38 24 -17 0 -56 54
-48 67 4 6 18 13 32 14 19 3 26 12 30 34 6 30 10 32 42 20 13 -5 19 2 29 37 6
23 11 48 10 53 -4 36 -8 52 -14 62 -4 6 -3 14 2 18 15 9 -20 45 -43 45 -40 0
-104 32 -110 54 -3 11 -1 23 4 24 16 6 12 22 -5 22 -8 0 -15 5 -15 11 0 6 -5
7 -12 2 -19 -12 -28 -11 -86 9 -57 19 -103 18 -127 -2 -19 -16 -19 -39 0 -46
8 -4 15 -14 15 -23 0 -10 7 -26 15 -37 19 -25 19 -35 -2 -27 -10 4 -14 2 -10
-4 10 -16 -3 -43 -19 -43 -8 0 -14 -8 -14 -18 0 -23 30 -52 53 -52 20 0 37
-30 37 -64 0 -16 -6 -26 -15 -26 -11 0 -13 8 -9 30 5 21 3 30 -6 30 -7 0 -18
8 -25 17 -11 15 -14 14 -29 -9 -15 -23 -15 -29 4 -89 26 -85 26 -90 -15 -116
-61 -40 -65 -36 -150 122 -55 103 -173 285 -185 285 -12 0 -45 -45 -58 -77
-27 -70 -114 -369 -138 -470 -14 -62 -34 -124 -45 -137 -10 -13 -55 -38 -101
-56 -219 -87 -560 -276 -608 -338 -49 -63 -150 -227 -166 -270 -20 -53 -41
-82 -61 -82 -10 0 -13 -41 -13 -210 l0 -210 2500 0 2500 0 0 245 0 245 -100
65 c-55 35 -160 98 -233 138 -201 113 -411 238 -419 251 -13 19 -9 65 7 96 10
18 13 40 9 56 -8 31 -138 172 -237 257 -37 32 -86 83 -108 112 -23 30 -63 70
-90 90 -27 19 -59 52 -72 72 -91 143 -150 256 -183 343 -22 62 -54 125 -80
161 -44 59 -155 149 -184 149 -8 0 -28 -9 -45 -20z m-625 -420 c0 -5 -5 -10
-11 -10 -5 0 -7 5 -4 10 3 6 8 10 11 10 2 0 4 -4 4 -10z m-930 -84 c0 -3 -4
-8 -10 -11 -5 -3 -10 -1 -10 4 0 6 5 11 10 11 6 0 10 -2 10 -4z m90 -8 c0 -5
9 -8 21 -8 14 0 19 -5 17 -17 -4 -18 -10 -19 -63 -8 -35 7 -50 19 -41 33 6 11
66 11 66 0z m-10 -54 c0 -8 -5 -12 -10 -9 -6 4 -8 11 -5 16 9 14 15 11 15 -7z
m-121 -440 c15 -9 38 -37 51 -63 13 -25 35 -63 47 -83 13 -21 23 -44 23 -51 0
-7 11 -28 25 -47 27 -36 32 -60 14 -60 -19 0 -50 39 -145 184 -50 76 -67 113
-58 127 7 12 12 12 43 -7z m968 -66 c-1 -17 -9 -34 -16 -36 -9 -3 -11 0 -6 8
4 7 2 16 -6 21 -10 6 -11 9 -1 9 6 0 12 7 12 15 0 8 4 15 10 15 5 0 9 -14 7
-32z m-664 -354 c30 -24 34 -46 12 -64 -20 -16 -45 -5 -80 37 -22 27 -26 38
-16 41 10 3 11 6 1 12 -7 4 -10 13 -6 19 7 11 38 -5 89 -45z m245 -226 c7 -7
12 -23 12 -36 0 -20 -4 -23 -32 -20 -33 3 -46 23 -34 54 7 17 38 18 54 2z"/>
<path d="M1487 2159 c-38 -10 -89 -19 -113 -20 -27 -2 -50 -10 -60 -20 -9 -10
-23 -15 -36 -11 -21 5 -21 3 -15 -73 4 -45 12 -82 20 -87 8 -5 27 8 55 40 124
138 99 131 378 103 61 -6 123 -15 137 -20 14 -5 28 -7 31 -4 3 4 6 1 6 -5 0
-7 -4 -13 -10 -13 -5 -1 -14 -3 -20 -4 -5 -1 -13 -3 -17 -4 -13 -3 27 -22 55
-27 15 -3 36 -7 46 -11 10 -3 58 -6 106 -8 69 -2 95 -7 122 -23 19 -12 38 -19
41 -15 4 3 7 1 7 -5 0 -7 8 -12 19 -12 10 0 21 -9 24 -20 3 -11 10 -20 16 -20
6 0 8 7 5 15 -4 9 2 23 14 33 14 13 18 22 11 33 -12 19 -11 52 1 44 15 -9 51
5 44 16 -4 6 -11 6 -19 -1 -8 -7 -19 -9 -26 -5 -8 6 -7 10 2 16 11 7 10 9 -3
9 -10 0 -18 -5 -18 -11 0 -7 -11 -4 -27 7 -15 9 -43 19 -63 20 -86 8 -166 20
-178 28 -8 4 -32 9 -55 11 -23 1 -76 13 -117 25 -77 23 -156 28 -173 11 -6 -6
-17 -5 -31 4 -35 22 -87 24 -159 4z"/>
<path d="M1800 2053 l-25 -13 27 3 c30 3 44 12 31 19 -4 3 -19 -1 -33 -9z"/>
</g>
</svg>
